<svg xmlns="http://www.w3.org/2000/svg" xmlns:xlink="http://www.w3.org/1999/xlink" width="315" height="46" viewBox="0 0 315 46">
  <defs>
    <clipPath id="clip-Artboard_1">
      <rect width="315" height="46"/>
    </clipPath>
  </defs>
  <g id="Artboard_1" data-name="Artboard – 1" clip-path="url(#clip-Artboard_1)">
    <!-- <rect width="315" height="46" fill="#fff"/> -->
    <g id="Group_494" data-name="Group 494" transform="translate(-242.504 -210.255)">
      <path id="Path_68" data-name="Path 68" d="M270.4,233.7a2.776,2.776,0,0,0-1.827,2.945v8.83c-.47-.766-1.352-2.411-2.471-2.411-.942,0-4.829,2.3-8.126,2.3a14.543,14.543,0,1,1,0-29.085c3.06,0,7.006.7,9.419,2.766v3.533c-2.3-3.3-5.887-5.772-10.067-5.772-7.064,0-11.482,6.888-11.482,13.423,0,6.831,5.183,14.6,12.6,14.6,3.06,0,8.065-2.12,8.065-5.652,0-.939.059-1.65.059-1.884,0-1.237-.118-3-1.884-3.591Z" transform="translate(0 1.568)" fill="#161615" stroke="#161615" stroke-miterlimit="10" stroke-width="0.377"/>
      <path id="Path_69" data-name="Path 69" d="M307.5,250.573a18.371,18.371,0,0,1-9.95,2.588c-12.835,0-11.6-19.31-21.843-19.31H270.7v8.417a2.72,2.72,0,0,0,1.884,2.945h-5.827c1.472-.412,1.884-1.65,1.884-3V219.305a2.719,2.719,0,0,0-1.884-2.943H276.3c5.592,0,11.009,2.416,11.009,8.774,0,5.24-4.241,8.36-9.125,8.653,7.831,2.358,10.007,18.37,21.194,18.37a13.533,13.533,0,0,0,7.832-2.118Zm-36.8-17.134h5.652c5.123,0,8.6-3.122,8.6-8.3s-3.473-8.242-8.6-8.242H270.7Z" transform="translate(7.026 1.594)" fill="#161615" stroke="#161615" stroke-miterlimit="10" stroke-width="0.377"/>
      <path id="Path_70" data-name="Path 70" d="M291.712,233.7c-.648,1.764-3.122,7.124-3.122,9.008,0,1.472.942,2.177,2.3,2.589h-5.712a5.126,5.126,0,0,0,2.709-2.945l9.95-26.257,9.6,26.137a4.718,4.718,0,0,0,2.531,3.064h-6.005a2.442,2.442,0,0,0,1.53-2.239c0-1.116-2.766-7.949-3.239-9.358Zm.117-.412h10.127l-5-13.6Z" transform="translate(12.572 1.513)" fill="#161615" stroke="#161615" stroke-miterlimit="10" stroke-width="0.377"/>
      <path id="Path_71" data-name="Path 71" d="M312.421,242.269a2.738,2.738,0,0,0,1.824,2.945h-5.71a2.788,2.788,0,0,0,1.884-3V219.425a2.858,2.858,0,0,0-1.884-3.063h9.538c5.592,0,11.009,2.416,11.009,8.774,0,6.121-5.592,8.773-11.009,8.773h-5.652Zm0-8.83h5.652c5.121,0,8.536-3.122,8.536-8.3s-3.414-8.3-8.536-8.3h-5.652Z" transform="translate(19.608 1.594)" fill="#161615" stroke="#161615" stroke-miterlimit="10" stroke-width="0.377"/>
      <path id="Path_72" data-name="Path 72" d="M330.827,242.314a2.777,2.777,0,0,0,1.823,2.943h-5.71a2.678,2.678,0,0,0,1.884-2.943v-22.9c0-1.476-.472-2.536-1.884-3.006h5.71c-1.412.47-1.823,1.593-1.823,3.006v10.83h15.424v-10.83c0-1.413-.412-2.536-1.824-3.006h5.71c-1.412.47-1.824,1.593-1.824,3.006v22.844c0,1.41.413,2.532,1.824,3h-5.71c1.412-.47,1.824-1.591,1.824-3V230.716H330.827Z" transform="translate(25.151 1.608)" fill="#161615" stroke="#161615" stroke-miterlimit="10" stroke-width="0.377"/>
      <path id="Path_73" data-name="Path 73" d="M352.963,242.255c0,1.41.413,2.532,1.824,3h-5.71c1.412-.47,1.884-1.53,1.884-3V219.412c0-1.476-.472-2.536-1.884-3.006h5.71c-1.412.47-1.824,1.593-1.824,3.006Z" transform="translate(31.818 1.608)" fill="#161615" stroke="#161615" stroke-miterlimit="10" stroke-width="0.377"/>
      <path id="Path_74" data-name="Path 74" d="M382.968,241.1c-2.706,2.239-7.064,4.3-10.654,4.3a14.543,14.543,0,1,1,0-29.085c3.06,0,7.063.705,9.419,2.766v3.533c-2.3-3.3-5.946-5.772-10.01-5.772-7.3,0-11.422,6.122-11.422,12.953,0,7,4.358,15.073,12.247,15.073,4.064,0,7.654-2.411,10.007-5.71Z" transform="translate(34.436 1.581)" fill="#161615" stroke="#161615" stroke-miterlimit="10" stroke-width="0.377"/>
      <path id="Path_75" data-name="Path 75" d="M427.23,216.362a3.925,3.925,0,0,0-3.06,2.943l-7.654,25.849-7.124-24.022-7.067,24.022-7.654-25.787a4.272,4.272,0,0,0-2.474-3.006h5.712a2.222,2.222,0,0,0-1.3,2.182c0,1.763,5.772,19.31,6.477,22.2l6.065-20.432c-.531-1.706-.942-3.236-2.766-3.945h5.769a2.224,2.224,0,0,0-1.295,2.182c0,1.643,5.533,19.425,6.475,22.2.707-2.416,6.476-20.9,6.476-22.081a2.447,2.447,0,0,0-2.058-2.3Z" transform="translate(44.805 1.594)" fill="#161615" stroke="#161615" stroke-miterlimit="10" stroke-width="0.377"/>
      <path id="Path_76" data-name="Path 76" d="M425.9,242.211c0,1.409.411,2.531,1.824,3h-5.711c1.412-.471,1.884-1.53,1.884-3V219.368c0-1.477-.472-2.536-1.884-3.006h5.711c-1.413.47-1.824,1.591-1.824,3.006Z" transform="translate(53.786 1.594)" fill="#161615" stroke="#161615" stroke-miterlimit="10" stroke-width="0.377"/>
      <path id="Path_77" data-name="Path 77" d="M438.283,244.041a2.53,2.53,0,0,0,1.824,2.766h-5.652a2.641,2.641,0,0,0,1.884-2.825v-27.2c-4.121-.178-9.065-1.18-12.13-4.243l.178-.527c3.239,3,6.888,4,11.186,4,8.948,0,17.131-4.947,26.082-4.947,4.77,0,9.185.945,12.307,4.77l-.532.234c-2.294-3.47-5.769-4.181-9.713-4.181-8.715,0-16.721,4.891-25.434,4.891Z" transform="translate(54.446)" fill="#161615" stroke="#161615" stroke-miterlimit="10" stroke-width="0.377"/>
      <path id="Path_78" data-name="Path 78" d="M467.738,241.059c-2.706,2.238-7.064,4.3-10.655,4.3a14.543,14.543,0,0,1,0-29.085c3.062,0,7.064.7,9.421,2.766v3.533c-2.3-3.3-5.946-5.772-10.01-5.772-7.3,0-11.422,6.122-11.422,12.953,0,7,4.356,15.073,12.247,15.073,4.062,0,7.654-2.412,10.01-5.71Z" transform="translate(59.968 1.568)" fill="#161615" stroke="#161615" stroke-miterlimit="10" stroke-width="0.377"/>
      <path id="Path_79" data-name="Path 79" d="M468.614,242.269a2.779,2.779,0,0,0,1.824,2.945h-5.71a2.68,2.68,0,0,0,1.884-2.945v-22.9c0-1.477-.472-2.536-1.884-3.006h5.71c-1.412.47-1.824,1.591-1.824,3.006V230.2h15.424v-10.83c0-1.414-.412-2.536-1.824-3.006h5.71c-1.412.47-1.824,1.591-1.824,3.006v22.844c0,1.409.412,2.531,1.824,3h-5.71c1.412-.471,1.824-1.593,1.824-3V230.672H468.614Z" transform="translate(66.65 1.594)" fill="#161615" stroke="#161615" stroke-miterlimit="10" stroke-width="0.377"/>
    </g>
  </g>
</svg>
